# xmcd CD database file
#
# Track frame offsets:
#	150
#	21337
#	38748
#	55558
#	71844
#	92554
#	108165
#	122201
#	142087
#	158373
#	175109
#	191471
#
# Disc length: 2820 seconds
#
# Revision: 0
# Processed by: cddbd v1.5.2PL0 Copyright (c) Steve Scherf et al.
# Submitted via: CDex 1.51
#
DISCID=980b020c
DTITLE=Peter Lipa - Lipa 68
DYEAR=2012
DGENRE=Jazz
TTITLE0=Hopeful Spring And Weeping Summer
TTITLE1=Co Mam Rad
TTITLE2=Ghosts
TTITLE3=A Bag Of Gifts
TTITLE4=Kam Sa Strati Svetlo
TTITLE5=Woodoo Doll
TTITLE6=Smiem Prosit
TTITLE7=Water In My Shoes
TTITLE8=Stromy Sa Lubia Postojacky
TTITLE9=Uder Pod Pas
TTITLE10=Time
TTITLE11=Hmla
EXTD=YEAR: 2012
EXTT0=
EXTT1=
EXTT2=
EXTT3=
EXTT4=
EXTT5=
EXTT6=
EXTT7=
EXTT8=
EXTT9=
EXTT10=
EXTT11=
PLAYORDER=
